<svg height="93" width="130" xmlns="http://www.w3.org/2000/svg"><path d="m5.188 72.735h108.479v7.054h-108.479z" fill="#007bbe"/><path d="m97.039 39.787c3.015-1.211 5.75-2.846 5.75-6.116 0-4.847-4.256-6.595-8.768-6.595-4.848 0-8.597 2.368-8.597 7.188h4.228c.227-2.563 1.806-4.202 4.876-4.202 1.581 0 4.032.819 4.032 3.243 0 2.199-1.606 2.848-5.75 4.624-3.216 1.367-6.184 3.169-7.331 6.259-1.729-3.77-5.875-7.706-13.922-7.706-8.477 0-13.684 3.883-15.749 9.604-.316-5.711-4.214-9.604-12.221-9.604-5.954 0-10.247 3.551-11.678 6.527-.859-2.976-3.95-6.527-10.649-6.527-6.812 0-10.017 3.263-11.792 6.413h-.113v-5.496h-4.167v29.769h4.167v-16.774c0-6.869 4.465-10.36 10.533-10.36 5.782 0 8.472 3.205 8.472 6.983v20.151h4.237v-17.575c0-5.782 3.606-9.56 10.131-9.56 6.126 0 8.874 2.804 8.874 8.242v18.893h4.237v-8.644c2.155 5.848 7.573 9.56 15.719 9.56 10.819 0 14.256-7.671 15.057-11.564h-4.237c-1.088 4.637-4.579 8.013-10.819 8.013-8.07 0-12.537-4.864-12.537-12.25 0-6.869 4.007-12.249 12.537-12.249 5.269 0 9.275 1.962 10.591 7.057h20.611v-3.214h-13.051c1.041-2.058 4.311-2.877 7.329-4.09zm12.581-2.388h4.047v29.769h-4.047z"/><path d="m109.581 26.016c-3.187-.294-5.556-2.91-5.284-5.846.273-2.934 3.079-5.074 6.266-4.778l.111.015a4.974 4.974 0 0 1 -.316-2.244c.272-2.935 3.075-5.075 6.265-4.78 3.188.294 5.555 2.914 5.283 5.846a4.968 4.968 0 0 1 -.729 2.159c.111.003.222.005.336.014 3.188.296 5.551 2.914 5.282 5.847-.271 2.934-3.077 5.074-6.264 4.78-1.611-.149-3.339-1.691-4.359-2.761.176 2.584 0 8.453-1.784 10.4 0 0-.899-1.973-5.371-2.848 0 0 5.117-3.44 5.727-7.893-1.157 1.432-3.076 2.282-5.163 2.089z" fill="#007bbe"/><path d="m113.054 78.965v-1.027h-3.406v-1.659h3.06v-1.029h-3.06v-1.353h3.289v-1.032h-4.521v6.1zm-8.496-5.068c.444 0 .74.014.887.04.198.037.364.127.494.271s.196.328.196.55a.804.804 0 0 1 -.526.775c-.164.062-.488.095-.972.095h-.675v-1.73h.596zm-.595 5.068v-2.302h.802c.559 0 .984-.028 1.278-.086a1.716 1.716 0 0 0 1.157-.89c.137-.256.204-.572.204-.945 0-.486-.117-.881-.354-1.188a1.6 1.6 0 0 0 -.878-.597c-.227-.062-.715-.092-1.465-.092h-1.976v6.1zm-7.393-2.846c0 .681.038 1.198.12 1.548.055.235.17.461.346.675.175.216.412.391.713.525.302.135.742.202 1.326.202.48 0 .872-.062 1.173-.187.299-.122.538-.289.717-.496a1.72 1.72 0 0 0 .369-.766c.065-.302.1-.821.1-1.552v-3.204h-1.232v3.374c0 .483-.019.829-.055 1.036a.837.837 0 0 1 -.319.527c-.178.143-.441.213-.79.213-.346 0-.615-.075-.814-.227a.997.997 0 0 1 -.376-.601c-.03-.155-.045-.496-.045-1.02v-3.304h-1.233zm-5.134-1.783c.312-.349.72-.521 1.227-.521.51 0 .916.172 1.221.516.307.344.461.865.461 1.564 0 .706-.157 1.238-.474 1.592-.313.353-.716.529-1.208.529a1.56 1.56 0 0 1 -1.214-.534c-.319-.356-.479-.881-.479-1.571 0-.703.154-1.226.466-1.575zm-.932 3.903c.535.553 1.256.83 2.163.83.896 0 1.611-.279 2.146-.835.536-.556.803-1.327.803-2.312 0-.992-.27-1.768-.81-2.325-.538-.558-1.258-.837-2.155-.837-.498 0-.937.082-1.315.242-.286.119-.55.302-.789.55a2.873 2.873 0 0 0 -.568.835c-.185.423-.277.944-.277 1.564-.001.973.266 1.734.802 2.288zm-5.471-4.342h.961c.499 0 .798.007.897.021a.75.75 0 0 1 .464.237.727.727 0 0 1 .166.498.803.803 0 0 1 -.126.458c-.083.122-.197.209-.345.259s-.518.073-1.108.073h-.909zm0 5.068v-2.546h.249c.283 0 .488.023.62.068a.934.934 0 0 1 .369.253c.117.124.334.423.65.896l.89 1.328h1.474l-.746-1.189c-.294-.475-.528-.805-.7-.99a2.862 2.862 0 0 0 -.66-.512c.535-.079.938-.266 1.207-.563.27-.299.404-.677.404-1.135 0-.361-.09-.681-.267-.962a1.398 1.398 0 0 0 -.71-.583c-.296-.11-.768-.165-1.42-.165h-2.592v6.1zm-3.615-2.242v.772a2.594 2.594 0 0 1 -.668.368 2.117 2.117 0 0 1 -.777.152c-.521 0-.943-.182-1.265-.543s-.481-.904-.481-1.628c0-.672.157-1.178.476-1.52.318-.341.745-.511 1.283-.511.354 0 .65.087.888.26.238.174.4.41.485.709l1.224-.229c-.122-.561-.395-.999-.822-1.317-.426-.317-1.017-.477-1.774-.477-.583 0-1.069.103-1.46.304a2.698 2.698 0 0 0 -1.169 1.137c-.267.493-.398 1.057-.398 1.693 0 .584.118 1.127.358 1.625.237.496.594.88 1.067 1.148.476.267 1.031.401 1.667.401.503 0 .999-.096 1.489-.286.49-.189.862-.409 1.121-.66v-2.428h-2.655v1.027h1.411z" fill="#fff"/></svg>